<svg width="179" height="60" viewBox="0 0 179 60" fill="none" xmlns="http://www.w3.org/2000/svg">
<path d="M34.1298 11.7786C33.2914 10.8346 31.3724 9.19336 28.4845 9.19336C25.6211 9.19336 23.733 10.7663 22.9004 11.6724C22.8727 11.709 22.4266 12.3173 22.775 13.2041L28.0578 26.6482C28.0578 26.6482 28.529 27.8536 29.0035 26.6482L34.2699 13.2723C34.596 12.3826 34.1298 11.7786 34.1298 11.7786Z" fill="url(#paint0_linear_397_1992)"/>
<path d="M20.0886 12.7209C18.8622 12.6777 16.4033 12.9463 14.3612 15.0972C12.3365 17.2296 12.0574 19.7479 12.0771 21.0086C12.0821 21.0552 12.1748 21.8175 13.0167 22.1851L25.7782 27.757C25.7782 27.757 26.9207 28.2587 26.4469 27.0529L21.1907 13.6726C20.8238 12.8008 20.0886 12.7209 20.0886 12.7209Z" fill="url(#paint1_linear_397_1992)"/>
<path d="M11.1792 24.1153C10.283 24.9981 8.72461 27.0193 8.72461 30.0611C8.72461 33.0766 10.2181 35.0653 11.0784 35.9421C11.1131 35.9714 11.6907 36.4412 12.5327 36.0741L25.2974 30.5102C25.2974 30.5102 26.442 30.014 25.2974 29.5142L12.5974 23.9675C11.7526 23.6243 11.1792 24.1153 11.1792 24.1153Z" fill="url(#paint2_linear_397_1992)"/>
<path d="M12.08 38.8431C12.0391 40.1351 12.2941 42.7246 14.3363 44.8754C16.361 47.0079 18.752 47.3019 19.949 47.2811C19.9933 47.276 20.717 47.1782 21.0661 46.2916L26.3565 32.8507C26.3565 32.8507 26.8328 31.6476 25.6878 32.1466L12.9837 37.6825C12.1558 38.069 12.08 38.8431 12.08 38.8431Z" fill="url(#paint3_linear_397_1992)"/>
<path d="M22.8887 48.2216C23.7271 49.1655 25.646 50.8069 28.534 50.8069C31.3974 50.8069 33.2854 49.234 34.118 48.328C34.1457 48.2913 34.5918 47.683 34.2433 46.7962L28.9605 33.3522C28.9605 33.3522 28.4895 32.1467 28.0148 33.3522L22.7484 46.7279C22.4228 47.6177 22.8887 48.2216 22.8887 48.2216Z" fill="url(#paint4_linear_397_1992)"/>
<path d="M36.8796 47.2783C38.106 47.3215 40.565 47.0529 42.6071 44.9019C44.6317 42.7694 44.9107 40.2512 44.8912 38.9905C44.8862 38.9439 44.7934 38.1816 43.9516 37.8142L31.19 32.2421C31.19 32.2421 30.0475 31.7406 30.5213 32.9464L35.7775 46.3266C36.1446 47.1983 36.8796 47.2783 36.8796 47.2783Z" fill="url(#paint5_linear_397_1992)"/>
<path d="M45.785 35.9344C46.6813 35.0515 48.2395 33.0304 48.2395 29.9888C48.2395 26.9731 46.7461 24.9844 45.8859 24.1075C45.8512 24.0784 45.2736 23.6085 44.4317 23.9753L31.6668 29.5395C31.6668 29.5395 30.5224 30.0355 31.6668 30.5355L44.3669 36.0821C45.2117 36.4253 45.785 35.9344 45.785 35.9344Z" fill="url(#paint6_linear_397_1992)"/>
<path d="M44.8883 21.1558C44.9293 19.8638 44.6743 17.2742 42.6321 15.1234C40.6073 12.9909 38.2163 12.697 37.0193 12.7178C36.9752 12.723 36.2513 12.8207 35.9024 13.7073L30.6118 27.1482C30.6118 27.1482 30.1357 28.3514 31.2805 27.8523L43.9848 22.3164C44.8124 21.9299 44.8883 21.1558 44.8883 21.1558Z" fill="url(#paint7_linear_397_1992)"/>
<path d="M37.4956 56.0765C37.8992 57.2442 37.329 58.5441 36.1932 58.8803C32.5664 59.9543 28.7661 60.2617 25.0128 59.7764C20.5512 59.1994 16.2826 57.5185 12.556 54.8711C8.82941 52.2236 5.75061 48.6851 3.57134 44.5444C1.39208 40.4035 0.174229 35.7784 0.0173536 31.047C-0.139522 26.3155 0.769036 21.6122 2.66875 17.3215C4.56845 13.0307 7.40538 9.27441 10.9475 6.35967C14.4897 3.44494 18.6365 1.45453 23.0492 0.551185C26.7612 -0.20877 30.5726 -0.181231 34.2616 0.623607C35.4169 0.87566 36.0718 2.13049 35.7466 3.32499C35.4214 4.5195 34.2392 5.19972 33.0808 4.9638C30.0432 4.34513 26.9144 4.34409 23.8643 4.96851C20.1138 5.73635 16.5889 7.42819 13.578 9.90572C10.5672 12.3832 8.1558 15.5761 6.54104 19.2233C4.9263 22.8704 4.15403 26.8682 4.28737 30.8899C4.42071 34.9117 5.45589 38.8429 7.30827 42.3626C9.16062 45.8822 11.7776 48.8901 14.9452 51.1405C18.1128 53.3908 21.7412 54.8195 25.5335 55.3099C28.6174 55.7088 31.7386 55.4778 34.7278 54.6374C35.8678 54.3171 37.092 54.9088 37.4956 56.0765Z" fill="url(#paint8_linear_397_1992)"/>
<path d="M160.963 52.8367C158.612 52.8367 156.545 52.2817 154.761 51.1717C153.018 50.019 151.661 48.4394 150.688 46.4329C149.715 44.4266 149.229 42.1212 149.229 39.5172V20.5625H156.889V38.8768C156.889 41.2674 157.437 43.0604 158.531 44.2558C159.666 45.451 161.267 46.0487 163.334 46.0487C165.685 46.0487 167.509 45.2377 168.806 43.6154C170.103 41.9506 170.752 39.6451 170.752 36.6995V20.5625H178.413V52.3244H170.874V48.162H169.779C169.293 49.2293 168.381 50.2752 167.043 51.2998C165.705 52.3244 163.679 52.8367 160.963 52.8367Z" fill="url(#paint9_linear_397_1992)"/>
<path d="M116.908 52.3244V42.7189L133.446 28.2467V27.2221H117.516V20.5625H141.836V30.1678L125.298 44.64V45.6646H142.323V52.3244H116.908Z" fill="url(#paint10_linear_397_1992)"/>
<path d="M92.0274 52.8367C89.6764 52.8367 87.6093 52.2817 85.8259 51.1717C84.0829 50.019 82.7249 48.4394 81.7522 46.4329C80.7793 44.4266 80.293 42.1212 80.293 39.5172V20.5625H87.9537V38.8768C87.9537 41.2674 88.501 43.0604 89.5954 44.2558C90.7303 45.451 92.3314 46.0487 94.3986 46.0487C96.7496 46.0487 98.5736 45.2377 99.8706 43.6154C101.168 41.9506 101.816 39.6451 101.816 36.6995V20.5625H109.477V52.3244H101.938V48.162H100.843C100.357 49.2293 99.445 50.2752 98.1075 51.2998C96.7699 52.3244 94.7431 52.8367 92.0274 52.8367Z" fill="url(#paint11_linear_397_1992)"/>
<path d="M57.9274 52.3251V36.8926L43.457 7.5H52.3947L61.3932 26.7108H62.4876L71.486 7.5H80.4236L65.9531 36.8926V52.3251H57.9274Z" fill="url(#paint12_linear_397_1992)"/>
<defs>
<linearGradient id="paint0_linear_397_1992" x1="207.772" y1="30.0004" x2="0.000901481" y2="30.0004" gradientUnits="userSpaceOnUse">
<stop stop-color="#6BCF13"/>
<stop offset="1" stop-color="#FDD447"/>
</linearGradient>
<linearGradient id="paint1_linear_397_1992" x1="207.771" y1="29.9992" x2="0.000287019" y2="29.9992" gradientUnits="userSpaceOnUse">
<stop stop-color="#6BCF13"/>
<stop offset="1" stop-color="#FDD447"/>
</linearGradient>
<linearGradient id="paint2_linear_397_1992" x1="207.771" y1="30.0006" x2="0.000152982" y2="30.0006" gradientUnits="userSpaceOnUse">
<stop stop-color="#6BCF13"/>
<stop offset="1" stop-color="#FDD447"/>
</linearGradient>
<linearGradient id="paint3_linear_397_1992" x1="207.772" y1="29.9995" x2="0.000940158" y2="29.9995" gradientUnits="userSpaceOnUse">
<stop stop-color="#6BCF13"/>
<stop offset="1" stop-color="#FDD447"/>
</linearGradient>
<linearGradient id="paint4_linear_397_1992" x1="207.772" y1="29.9998" x2="0.000771475" y2="29.9998" gradientUnits="userSpaceOnUse">
<stop stop-color="#6BCF13"/>
<stop offset="1" stop-color="#FDD447"/>
</linearGradient>
<linearGradient id="paint5_linear_397_1992" x1="207.772" y1="29.9999" x2="0.000393857" y2="29.9999" gradientUnits="userSpaceOnUse">
<stop stop-color="#6BCF13"/>
<stop offset="1" stop-color="#FDD447"/>
</linearGradient>
<linearGradient id="paint6_linear_397_1992" x1="207.772" y1="29.9995" x2="0.00059122" y2="29.9995" gradientUnits="userSpaceOnUse">
<stop stop-color="#6BCF13"/>
<stop offset="1" stop-color="#FDD447"/>
</linearGradient>
<linearGradient id="paint7_linear_397_1992" x1="207.772" y1="29.9992" x2="0.000367128" y2="29.9992" gradientUnits="userSpaceOnUse">
<stop stop-color="#6BCF13"/>
<stop offset="1" stop-color="#FDD447"/>
</linearGradient>
<linearGradient id="paint8_linear_397_1992" x1="207.771" y1="30" x2="0" y2="30" gradientUnits="userSpaceOnUse">
<stop stop-color="#6BCF13"/>
<stop offset="1" stop-color="#FDD447"/>
</linearGradient>
<linearGradient id="paint9_linear_397_1992" x1="207.772" y1="29.9991" x2="0.000917571" y2="29.9991" gradientUnits="userSpaceOnUse">
<stop stop-color="#6BCF13"/>
<stop offset="1" stop-color="#FDD447"/>
</linearGradient>
<linearGradient id="paint10_linear_397_1992" x1="207.772" y1="29.9991" x2="0.000477585" y2="29.9991" gradientUnits="userSpaceOnUse">
<stop stop-color="#6BCF13"/>
<stop offset="1" stop-color="#FDD447"/>
</linearGradient>
<linearGradient id="paint11_linear_397_1992" x1="207.771" y1="29.9991" x2="9.36747e-05" y2="29.9991" gradientUnits="userSpaceOnUse">
<stop stop-color="#6BCF13"/>
<stop offset="1" stop-color="#FDD447"/>
</linearGradient>
<linearGradient id="paint12_linear_397_1992" x1="207.771" y1="29.9998" x2="0.000262088" y2="29.9998" gradientUnits="userSpaceOnUse">
<stop stop-color="#6BCF13"/>
<stop offset="1" stop-color="#FDD447"/>
</linearGradient>
</defs>
</svg>
